<svg xmlns="http://www.w3.org/2000/svg" version="1.1" xmlns:xlink="http://www.w3.org/1999/xlink" xmlns:svgjs="http://svgjs.com/svgjs" width="1440" height="560" preserveAspectRatio="none" viewBox="0 0 1440 560"><g mask="url(&quot;#SvgjsMask1244&quot;)" fill="none"><rect width="1440" height="560" x="0" y="0" fill="url(#SvgjsLinearGradient1245)"></rect><path d="M198 375L-135 42" stroke-width="8" stroke="url(#SvgjsLinearGradient1246)" stroke-linecap="round" class="BottomRight"></path><path d="M727 500L1066 839" stroke-width="6" stroke="url(#SvgjsLinearGradient1247)" stroke-linecap="round" class="TopLeft"></path><path d="M297 214L439 356" stroke-width="8" stroke="url(#SvgjsLinearGradient1246)" stroke-linecap="round" class="BottomRight"></path><path d="M1083 534L1299 750" stroke-width="10" stroke="url(#SvgjsLinearGradient1246)" stroke-linecap="round" class="BottomRight"></path><path d="M1346 481L1749 884" stroke-width="6" stroke="url(#SvgjsLinearGradient1246)" stroke-linecap="round" class="BottomRight"></path><path d="M1266 421L1580 735" stroke-width="10" stroke="url(#SvgjsLinearGradient1247)" stroke-linecap="round" class="TopLeft"></path><path d="M1422 534L1061 173" stroke-width="10" stroke="url(#SvgjsLinearGradient1246)" stroke-linecap="round" class="BottomRight"></path><path d="M747 76L386 -285" stroke-width="10" stroke="url(#SvgjsLinearGradient1246)" stroke-linecap="round" class="BottomRight"></path><path d="M266 19L441 194" stroke-width="6" stroke="url(#SvgjsLinearGradient1246)" stroke-linecap="round" class="BottomRight"></path><path d="M977 59L1234 316" stroke-width="10" stroke="url(#SvgjsLinearGradient1247)" stroke-linecap="round" class="TopLeft"></path><path d="M785 123L996 334" stroke-width="6" stroke="url(#SvgjsLinearGradient1247)" stroke-linecap="round" class="TopLeft"></path><path d="M1027 519L778 270" stroke-width="6" stroke="url(#SvgjsLinearGradient1247)" stroke-linecap="round" class="TopLeft"></path><path d="M697 102L844 249" stroke-width="8" stroke="url(#SvgjsLinearGradient1247)" stroke-linecap="round" class="TopLeft"></path><path d="M609 51L310 -248" stroke-width="8" stroke="url(#SvgjsLinearGradient1247)" stroke-linecap="round" class="TopLeft"></path><path d="M242 393L63 214" stroke-width="10" stroke="url(#SvgjsLinearGradient1247)" stroke-linecap="round" class="TopLeft"></path><path d="M465 62L291 -112" stroke-width="6" stroke="url(#SvgjsLinearGradient1246)" stroke-linecap="round" class="BottomRight"></path><path d="M622 406L424 208" stroke-width="6" stroke="url(#SvgjsLinearGradient1246)" stroke-linecap="round" class="BottomRight"></path><path d="M1406 459L1563 616" stroke-width="8" stroke="url(#SvgjsLinearGradient1246)" stroke-linecap="round" class="BottomRight"></path><path d="M1302 538L1103 339" stroke-width="10" stroke="url(#SvgjsLinearGradient1246)" stroke-linecap="round" class="BottomRight"></path><path d="M333 33L489 189" stroke-width="10" stroke="url(#SvgjsLinearGradient1246)" stroke-linecap="round" class="BottomRight"></path><path d="M239 277L396 434" stroke-width="6" stroke="url(#SvgjsLinearGradient1246)" stroke-linecap="round" class="BottomRight"></path><path d="M937 352L1086 501" stroke-width="10" stroke="url(#SvgjsLinearGradient1246)" stroke-linecap="round" class="BottomRight"></path><path d="M1132 446L1515 829" stroke-width="10" stroke="url(#SvgjsLinearGradient1247)" stroke-linecap="round" class="TopLeft"></path><path d="M986 500L1326 840" stroke-width="6" stroke="url(#SvgjsLinearGradient1247)" stroke-linecap="round" class="TopLeft"></path><path d="M879 196L1100 417" stroke-width="10" stroke="url(#SvgjsLinearGradient1246)" stroke-linecap="round" class="BottomRight"></path><path d="M173 115L-224 -282" stroke-width="8" stroke="url(#SvgjsLinearGradient1247)" stroke-linecap="round" class="TopLeft"></path><path d="M661 439L1032 810" stroke-width="6" stroke="url(#SvgjsLinearGradient1246)" stroke-linecap="round" class="BottomRight"></path><path d="M1236 367L1506 637" stroke-width="6" stroke="url(#SvgjsLinearGradient1246)" stroke-linecap="round" class="BottomRight"></path><path d="M958 454L818 314" stroke-width="6" stroke="url(#SvgjsLinearGradient1247)" stroke-linecap="round" class="TopLeft"></path><path d="M716 396L1047 727" stroke-width="8" stroke="url(#SvgjsLinearGradient1246)" stroke-linecap="round" class="BottomRight"></path><path d="M95 323L456 684" stroke-width="8" stroke="url(#SvgjsLinearGradient1246)" stroke-linecap="round" class="BottomRight"></path><path d="M486 66L847 427" stroke-width="8" stroke="url(#SvgjsLinearGradient1246)" stroke-linecap="round" class="BottomRight"></path><path d="M890 472L652 234" stroke-width="6" stroke="url(#SvgjsLinearGradient1247)" stroke-linecap="round" class="TopLeft"></path><path d="M1099 312L1362 575" stroke-width="10" stroke="url(#SvgjsLinearGradient1246)" stroke-linecap="round" class="BottomRight"></path><path d="M65 271L-191 15" stroke-width="8" stroke="url(#SvgjsLinearGradient1247)" stroke-linecap="round" class="TopLeft"></path><path d="M597 11L446 -140" stroke-width="8" stroke="url(#SvgjsLinearGradient1247)" stroke-linecap="round" class="TopLeft"></path><path d="M1353 86L1000 -267" stroke-width="8" stroke="url(#SvgjsLinearGradient1246)" stroke-linecap="round" class="BottomRight"></path><path d="M333 233L71 -29" stroke-width="6" stroke="url(#SvgjsLinearGradient1246)" stroke-linecap="round" class="BottomRight"></path><path d="M1388 408L1704 724" stroke-width="6" stroke="url(#SvgjsLinearGradient1246)" stroke-linecap="round" class="BottomRight"></path></g><defs><mask id="SvgjsMask1244"><rect width="1440" height="560" fill="#ffffff"></rect></mask><linearGradient x1="15.28%" y1="139.29%" x2="84.72%" y2="-39.29%" gradientUnits="userSpaceOnUse" id="SvgjsLinearGradient1245"><stop stop-color="#0e2a47" offset="0"></stop><stop stop-color="rgba(2, 62, 138, 1)" offset="1"></stop></linearGradient><linearGradient x1="0%" y1="0%" x2="100%" y2="100%" id="SvgjsLinearGradient1246"><stop stop-color="rgba(28, 83, 142, 0)" offset="0"></stop><stop stop-color="#1c538e" offset="1"></stop></linearGradient><linearGradient x1="100%" y1="100%" x2="0%" y2="0%" id="SvgjsLinearGradient1247"><stop stop-color="rgba(28, 83, 142, 0)" offset="0"></stop><stop stop-color="#1c538e" offset="1"></stop></linearGradient></defs></svg>